<svg width="350" height="248" viewBox="0 0 350 248" fill="none" xmlns="http://www.w3.org/2000/svg">
<path fill-rule="evenodd" clip-rule="evenodd" d="M202.935 166.558C193.73 162.555 192.529 158.811 192.449 153.194C181.003 154.291 168.516 153.387 157.71 153C157.71 158.23 156.59 162.039 148.665 165.848C132.417 173.66 102 173.983 102 188.703V196.838C102 197.483 102.64 198 103.441 198H246.399C247.279 198 247.999 197.419 247.999 196.709V188.057C248.16 174.628 215.182 171.917 202.935 166.558Z" stroke="#0F172A" stroke-miterlimit="10"/>
<path d="M174.96 154.881C211.9 154.881 241.846 124.935 241.846 87.9956C241.846 51.0558 211.9 21.1102 174.96 21.1102C138.019 21.1102 108.073 51.0558 108.073 87.9956C108.073 124.935 138.019 154.881 174.96 154.881Z" stroke="#0F172A" stroke-miterlimit="10"/>
<path d="M195.756 124.931C196.961 125.895 196.881 127.34 195.676 128.223C189.574 132.8 182.989 135.129 176.004 135.129C169.098 135.129 162.032 132.88 154.565 128.303C153.28 127.501 153.039 126.055 154.083 125.011C155.127 123.968 157.054 123.807 158.339 124.61C164.602 128.464 170.463 130.391 175.923 130.391C181.223 130.391 186.362 128.464 191.34 124.771C192.705 123.968 194.552 124.048 195.756 124.931Z" stroke="#0F172A" stroke-miterlimit="10"/>
<path d="M209.888 95.3024C213.924 95.3024 217.195 92.031 217.195 87.9956C217.195 83.9601 213.924 80.6888 209.888 80.6888C205.853 80.6888 202.582 83.9601 202.582 87.9956C202.582 92.031 205.853 95.3024 209.888 95.3024Z" stroke="#0F172A" stroke-miterlimit="10"/>
<path d="M139.549 95.3024C143.585 95.3024 146.856 92.031 146.856 87.9956C146.856 83.9601 143.585 80.6888 139.549 80.6888C135.514 80.6888 132.242 83.9601 132.242 87.9956C132.242 92.031 135.514 95.3024 139.549 95.3024Z" stroke="#0F172A" stroke-miterlimit="10"/>
<path d="M6.41917 208.74H0.977295V203.299V6.81779V1.37598H6.41917H343.581H349.022V6.81779V203.299V208.74H343.581H220.809H220.309V209.24V232.767V233.267H220.809H240.945V246.88H108.573V233.267H128.709H129.209V232.767V209.24V208.74H128.709H6.41917ZM338.219 12.6795L338.219 12.1793H337.719H12.2808H11.7808V12.6793V197.437V197.937H12.2808H337.639H338.139L338.139 197.437L338.219 12.6795Z" stroke="#0F172A"/>
</svg>
