<svg xmlns="http://www.w3.org/2000/svg" xmlns:xlink="http://www.w3.org/1999/xlink" version="1.1" id="Layer_1" x="0px" y="0px" style="enable-background:new 0 0 595.3 841.9;" xml:space="preserve" viewBox="199.3 302 252.01 234.9">
<style type="text/css">
	.st0{display:none;}
	.st1{display:inline;fill-rule:evenodd;clip-rule:evenodd;fill:#EDF6FF;stroke:#0F172A;stroke-width:14;stroke-miterlimit:10;}
	.st2{fill:#FFFFFF;stroke:#0F172A;stroke-width:14;stroke-miterlimit:10;}
	.st3{fill:#0F172A;stroke:#0F172A;stroke-width:4;stroke-miterlimit:10;}
	.st4{fill:#0F172A;stroke:#0F172A;stroke-width:3;stroke-miterlimit:10;}
</style>
<g>
	<g class="st0">
		<path class="st1" d="M332.4,481.2c-11.5-6.2-13-12-13.1-20.7c-14.3,1.7-29.9,0.3-43.4-0.3c0,8.1-1.4,14-11.3,19.9    c-20.3,12.1-58.3,12.6-58.3,35.4v12.6c0,1,0.8,1.8,1.8,1.8h178.6c1.1,0,2-0.9,2-2v-13.4C388.9,493.7,347.7,489.5,332.4,481.2z"/>
	</g>
	<circle class="st2" cx="297.6" cy="392.3" r="83.3"/>
	<path class="st3" d="M323.5,438.3c1.5,1.2,1.4,3-0.1,4.1c-7.6,5.7-15.8,8.6-24.5,8.6c-8.6,0-17.4-2.8-26.7-8.5   c-1.6-1-1.9-2.8-0.6-4.1c1.3-1.3,3.7-1.5,5.3-0.5c7.8,4.8,15.1,7.2,21.9,7.2c6.6,0,13-2.4,19.2-7   C319.7,437.1,322,437.2,323.5,438.3z"/>
	<circle class="st4" cx="341.1" cy="392.3" r="9.1"/>
	<circle class="st4" cx="253.5" cy="392.3" r="9.1"/>
</g>
<path class="st2" d="M439.5,386.9c3.5,6,5.3,13.4,4.7,20.8c-0.4,5.8-1.7,11.3-3.9,16.1c-2.2,5-5.3,9.1-8.9,12  c-5.1,4.2-11.1,5.6-17.1,3.7c-0.6,7.6-3.4,14.4-7.8,18.8c-3.9,4.2-8.6,7.1-13.6,8.6c-5,1.5-10.2,1.7-15.4,0.5  c-6.3-1.6-11.9-5.4-15.8-11.6c-4.7,5.5-10.6,8.2-16.9,7.9c-5-0.1-10-1.6-14.7-4.3c-4.5-2.5-8.8-6.6-12.1-11.5  c-3.5-5.2-5.6-11.8-5.7-18.7c-7.8,0-15.2-5.6-19.3-14.8c-2-4.1-3.4-8.7-4.1-13.5c-0.8-4.9-0.8-9.7-0.2-14.5  c1.5-10.8,6.8-20.3,16.9-23.9c-0.7-5.5-0.2-11,1.3-16c2.2-7,5.8-13,10.4-17.3c4.9-4.7,10.5-7.5,16.6-8.1c6.5-0.6,13.1,1.7,18.8,6.5  c4.7-6.8,13.4-10.6,22.3-11.2c3.8-0.3,7.7,0.1,11.4,1c3.5,0.9,7,2.6,10.1,5.2c3,2.4,5.5,6.2,6.9,10.5c9.8-3.9,18.2-2.5,24.8,1.8  c8.6,5.8,14.6,17.1,15.6,29.8C444.3,372.9,442.8,380.8,439.5,386.9z"/>
</svg>