<svg width="98" height="73" viewBox="0 0 98 73" fill="none" xmlns="http://www.w3.org/2000/svg">
<path d="M36.32 69.64C54.7221 69.64 69.64 54.7221 69.64 36.32C69.64 17.9179 54.7221 3 36.32 3C17.9179 3 3 17.9179 3 36.32C3 54.7221 17.9179 69.64 36.32 69.64Z" fill="white" stroke="#0F172A" stroke-width="5.6" stroke-miterlimit="10"/>
<path d="M46.68 54.72C47.28 55.2 47.24 55.92 46.64 56.36C43.6 58.64 40.32 59.8 36.84 59.8C33.4 59.8 29.88 58.68 26.16 56.4C25.52 56 25.4 55.28 25.92 54.76C26.44 54.24 27.4 54.16 28.04 54.56C31.16 56.48 34.08 57.44 36.8 57.44C39.44 57.44 42 56.48 44.48 54.64C45.16 54.24 46.08 54.28 46.68 54.72Z" fill="#0F172A" stroke="#0F172A" stroke-width="1.6" stroke-miterlimit="10"/>
<path d="M53.72 39.96C55.7303 39.96 57.36 38.3303 57.36 36.32C57.36 34.3097 55.7303 32.68 53.72 32.68C51.7096 32.68 50.08 34.3097 50.08 36.32C50.08 38.3303 51.7096 39.96 53.72 39.96Z" fill="#0F172A" stroke="#0F172A" stroke-width="1.2" stroke-miterlimit="10"/>
<path d="M18.68 39.96C20.6904 39.96 22.32 38.3303 22.32 36.32C22.32 34.3097 20.6904 32.68 18.68 32.68C16.6697 32.68 15.04 34.3097 15.04 36.32C15.04 38.3303 16.6697 39.96 18.68 39.96Z" fill="#0F172A" stroke="#0F172A" stroke-width="1.2" stroke-miterlimit="10"/>
<path d="M93.08 34.16C94.48 36.56 95.2 39.52 94.96 42.48C94.8 44.8 94.28 47 93.4 48.92C92.52 50.92 91.28 52.56 89.84 53.72C87.8 55.4 85.4 55.96 83 55.2C82.76 58.24 81.64 60.96 79.88 62.72C78.32 64.4 76.44 65.56 74.44 66.16C72.44 66.76 70.3601 66.84 68.28 66.36C65.7601 65.72 63.5201 64.2 61.9601 61.72C60.0801 63.92 57.72 65 55.2001 64.88C53.2001 64.84 51.2001 64.24 49.3201 63.16C47.5201 62.16 45.8001 60.52 44.4801 58.56C43.0801 56.48 42.2401 53.84 42.2001 51.08C39.0801 51.08 36.1201 48.84 34.4801 45.16C33.6801 43.52 33.1201 41.68 32.8401 39.76C32.5201 37.8 32.5201 35.88 32.7601 33.96C33.3601 29.64 35.4801 25.84 39.5201 24.4C39.2401 22.2 39.4401 20 40.0401 18C40.9201 15.2 42.3601 12.8 44.2001 11.08C46.1601 9.20001 48.4001 8.08001 50.8401 7.84001C53.4401 7.60001 56.0801 8.52001 58.3601 10.44C60.2401 7.72001 63.7201 6.20001 67.2801 5.96001C68.8 5.84001 70.36 6.00001 71.84 6.36001C73.24 6.72001 74.64 7.40001 75.88 8.44001C77.08 9.40001 78.08 10.92 78.64 12.64C82.56 11.08 85.92 11.64 88.56 13.36C92 15.68 94.4 20.2 94.8 25.28C95 28.56 94.4 31.72 93.08 34.16Z" fill="white" stroke="#0F172A" stroke-width="5.6" stroke-miterlimit="10"/>
</svg>
