<svg version="1.1" id="Layer_1" xmlns="http://www.w3.org/2000/svg" xmlns:xlink="http://www.w3.org/1999/xlink" x="0px" y="0px"
	 width="100%" viewBox="0 0 1024 1024" enable-background="new 0 0 1024 1024" xml:space="preserve">
<path fill="#000000" opacity="1.000000" stroke="none" 
	d="
M543.000000,1025.000000 
	C362.000000,1025.000000 181.500000,1025.000000 1.000000,1025.000000 
	C1.000000,683.666687 1.000000,342.333344 1.000000,1.000000 
	C342.333344,1.000000 683.666687,1.000000 1025.000000,1.000000 
	C1025.000000,342.333344 1025.000000,683.666687 1025.000000,1025.000000 
	C864.500000,1025.000000 704.000000,1025.000000 543.000000,1025.000000 
M249.921814,599.251343 
	C247.797592,591.486938 245.655090,583.727478 243.552856,575.957153 
	C238.792572,558.361938 236.850647,540.301208 236.215942,522.214600 
	C235.766586,509.409912 236.916565,496.495636 238.125122,483.703247 
	C239.085648,473.536163 240.896393,463.415009 242.920547,453.392822 
	C244.803101,444.071808 247.466583,434.908508 250.263672,425.123993 
	C262.552002,388.661011 281.565155,356.036346 307.195465,327.429230 
	C321.959930,310.949982 338.634796,296.417053 357.029694,284.030029 
	C377.308807,270.374176 398.993835,259.471191 422.122772,251.425003 
	C451.200073,241.309494 481.150360,236.131027 511.869446,236.161026 
	C524.493347,236.173370 537.226379,237.237015 549.709351,239.138336 
	C564.029297,241.319427 578.454285,243.917969 592.233521,248.245941 
	C607.576050,253.064957 622.611511,259.276611 637.086914,266.309814 
	C648.601501,271.904419 659.156677,279.516388 669.971619,286.490448 
	C675.536987,290.079315 680.739563,294.230743 685.454468,297.654694 
	C731.425232,251.725677 777.001038,206.191299 822.719910,160.513931 
	C815.335022,154.315308 807.965332,147.554123 800.014404,141.564575 
	C776.913696,124.162537 752.729004,108.368843 726.988770,95.138519 
	C714.950928,88.951118 702.657654,83.110718 690.052795,78.213074 
	C673.018677,71.594452 655.798157,65.249733 638.247375,60.218704 
	C616.105774,53.871704 593.558716,48.943878 570.489075,47.005085 
	C555.561951,45.750587 540.665955,43.928585 525.715271,43.218025 
	C515.311951,42.723587 504.818634,43.372917 494.402649,44.068050 
	C478.639679,45.120033 462.816772,45.992962 447.189453,48.165756 
	C430.073090,50.545589 412.872772,53.281250 396.213715,57.745235 
	C375.984985,63.165752 356.034149,69.890259 336.415894,77.256554 
	C310.188812,87.104362 285.451569,100.196793 261.734161,115.125877 
	C236.411469,131.065414 212.793930,149.320267 190.967056,169.721710 
	C179.259048,180.665131 168.703430,192.861145 157.857361,204.702179 
	C143.656677,220.205536 130.895599,236.894272 119.925240,254.797836 
	C109.858589,271.226562 100.746468,288.240173 90.872261,305.649658 
	C87.963799,311.586761 84.731529,317.389526 82.203415,323.484375 
	C71.725502,348.744873 62.516205,374.450348 56.489796,401.182587 
	C53.814384,413.050323 51.038338,424.926758 49.145302,436.931274 
	C46.954510,450.823883 44.887180,464.823761 44.217514,478.846344 
	C43.374367,496.501678 43.479408,514.246887 44.147552,531.916565 
	C44.748302,547.803894 46.244843,563.691467 48.130917,579.485229 
	C49.631504,592.051025 51.419640,604.714417 54.671467,616.910217 
	C60.498917,638.765564 66.942924,660.500244 74.260765,681.898376 
	C78.793900,695.153748 85.414162,707.695312 91.102264,721.220642 
	C101.416939,741.804443 112.933182,761.671143 126.052399,780.614990 
	C140.514221,801.497437 156.352600,821.268860 174.098175,839.420227 
	C183.693924,849.235352 193.805420,858.600952 204.217422,867.548889 
	C216.061188,877.727112 228.018158,887.899719 240.782532,896.853638 
	C265.428802,914.142334 291.276245,929.563171 319.035919,941.426147 
	C333.055969,947.417603 347.222504,953.188416 361.662537,958.049988 
	C392.203796,968.332153 423.378662,976.140808 455.594147,979.049133 
	C471.689789,980.502075 487.804443,982.693542 503.917664,982.757629 
	C523.406494,982.835266 542.914673,981.195984 562.390991,979.936279 
	C571.733582,979.332031 581.151184,978.533630 590.307251,976.691956 
	C607.451172,973.243652 624.736389,969.961548 641.399963,964.794983 
	C662.972290,958.106445 684.459229,950.707458 705.138184,941.679443 
	C732.875549,929.569885 759.149841,914.449890 783.136963,895.793884 
	C795.464661,886.205872 807.245178,875.914307 819.800781,865.608643 
	C959.525879,736.973389 978.477600,531.873596 950.056458,427.402466 
	C804.457825,427.402466 658.910217,427.402466 513.289795,427.402466 
	C513.289795,487.990051 513.289795,548.234375 513.289795,608.959839 
	C555.313171,608.959839 597.088379,608.959900 638.863525,608.959900 
	C680.542297,608.959900 722.221008,608.959839 764.223145,608.959839 
	C751.187256,669.064270 720.206543,715.806763 668.405640,749.097717 
	C648.712769,761.177490 627.836792,770.480408 605.636597,777.049133 
	C578.179321,785.173279 550.073120,788.686218 521.624573,789.890991 
	C512.886780,790.260986 504.075287,789.577942 495.330963,788.927673 
	C485.162354,788.171509 474.894867,787.636047 464.910492,785.739929 
	C443.142365,781.605957 422.010803,775.346497 401.579987,766.419922 
	C372.781586,753.837158 347.152313,736.636414 324.184113,715.457275 
	C315.457977,707.410706 307.735107,698.239319 299.873322,689.300598 
	C287.557922,675.298157 277.059479,659.933655 268.848022,643.229370 
	C261.914703,629.125122 256.129761,614.456299 249.921814,599.251343 
z"/>
<path fill="#EA4335" opacity="1.000000" stroke="none" 
	d="
M91.213791,304.996094 
	C100.746468,288.240173 109.858589,271.226562 119.925240,254.797836 
	C130.895599,236.894272 143.656677,220.205536 157.857361,204.702179 
	C168.703430,192.861145 179.259048,180.665131 190.967056,169.721710 
	C212.793930,149.320267 236.411469,131.065414 261.734161,115.125877 
	C285.451569,100.196793 310.188812,87.104362 336.415894,77.256554 
	C356.034149,69.890259 375.984985,63.165752 396.213715,57.745235 
	C412.872772,53.281250 430.073090,50.545589 447.189453,48.165756 
	C462.816772,45.992962 478.639679,45.120033 494.402649,44.068050 
	C504.818634,43.372917 515.311951,42.723587 525.715271,43.218025 
	C540.665955,43.928585 555.561951,45.750587 570.489075,47.005085 
	C593.558716,48.943878 616.105774,53.871704 638.247375,60.218704 
	C655.798157,65.249733 673.018677,71.594452 690.052795,78.213074 
	C702.657654,83.110718 714.950928,88.951118 726.988770,95.138519 
	C752.729004,108.368843 776.913696,124.162537 800.014404,141.564575 
	C807.965332,147.554123 815.335022,154.315308 822.719910,160.513931 
	C777.001038,206.191299 731.425232,251.725677 685.454468,297.654694 
	C680.739563,294.230743 675.536987,290.079315 669.971619,286.490448 
	C659.156677,279.516388 648.601501,271.904419 637.086914,266.309814 
	C622.611511,259.276611 607.576050,253.064957 592.233521,248.245941 
	C578.454285,243.917969 564.029297,241.319427 549.709351,239.138336 
	C537.226379,237.237015 524.493347,236.173370 511.869446,236.161026 
	C481.150360,236.131027 451.200073,241.309494 422.122772,251.425003 
	C398.993835,259.471191 377.308807,270.374176 357.029694,284.030029 
	C338.634796,296.417053 321.959930,310.949982 307.195465,327.429230 
	C281.565155,356.036346 262.552002,388.661011 249.745026,425.279785 
	C226.200546,407.883392 203.175369,390.330261 180.148697,372.779114 
	C150.504379,350.183929 120.858818,327.590363 91.213791,304.996094 
z"/>
<path fill="#33A952" opacity="1.000000" stroke="none" 
	d="
M819.272949,865.940674 
	C807.245178,875.914307 795.464661,886.205872 783.136963,895.793884 
	C759.149841,914.449890 732.875549,929.569885 705.138184,941.679443 
	C684.459229,950.707458 662.972290,958.106445 641.399963,964.794983 
	C624.736389,969.961548 607.451172,973.243652 590.307251,976.691956 
	C581.151184,978.533630 571.733582,979.332031 562.390991,979.936279 
	C542.914673,981.195984 523.406494,982.835266 503.917664,982.757629 
	C487.804443,982.693542 471.689789,980.502075 455.594147,979.049133 
	C423.378662,976.140808 392.203796,968.332153 361.662537,958.049988 
	C347.222504,953.188416 333.055969,947.417603 319.035919,941.426147 
	C291.276245,929.563171 265.428802,914.142334 240.782532,896.853638 
	C228.018158,887.899719 216.061188,877.727112 204.217422,867.548889 
	C193.805420,858.600952 183.693924,849.235352 174.098175,839.420227 
	C156.352600,821.268860 140.514221,801.497437 126.052399,780.614990 
	C112.933182,761.671143 101.416939,741.804443 91.455505,720.809937 
	C132.914505,688.957825 174.002670,657.493408 215.137283,626.089844 
	C226.633286,617.313416 238.266342,608.716614 249.836517,600.037354 
	C256.129761,614.456299 261.914703,629.125122 268.848022,643.229370 
	C277.059479,659.933655 287.557922,675.298157 299.873322,689.300598 
	C307.735107,698.239319 315.457977,707.410706 324.184113,715.457275 
	C347.152313,736.636414 372.781586,753.837158 401.579987,766.419922 
	C422.010803,775.346497 443.142365,781.605957 464.910492,785.739929 
	C474.894867,787.636047 485.162354,788.171509 495.330963,788.927673 
	C504.075287,789.577942 512.886780,790.260986 521.624573,789.890991 
	C550.073120,788.686218 578.179321,785.173279 605.636597,777.049133 
	C627.836792,770.480408 648.712769,761.177490 668.948975,749.199036 
	C678.491638,756.434753 687.431519,763.645447 696.500305,770.690308 
	C737.404602,802.466125 778.345398,834.195007 819.272949,865.940674 
z"/>
<path fill="#4285F2" opacity="1.000000" stroke="none" 
	d="
M819.536865,865.774658 
	C778.345398,834.195007 737.404602,802.466125 696.500305,770.690308 
	C687.431519,763.645447 678.491638,756.434753 669.271240,749.038147 
	C720.206543,715.806763 751.187256,669.064270 764.223145,608.959839 
	C722.221008,608.959839 680.542297,608.959900 638.863525,608.959900 
	C597.088379,608.959900 555.313171,608.959839 513.289795,608.959839 
	C513.289795,548.234375 513.289795,487.990051 513.289795,427.402466 
	C658.910217,427.402466 804.457825,427.402466 950.056458,427.402466 
	C978.477600,531.873596 959.525879,736.973389 819.536865,865.774658 
z"/>
<path fill="#FBBD06" opacity="1.000000" stroke="none" 
	d="
M249.879166,599.644348 
	C238.266342,608.716614 226.633286,617.313416 215.137283,626.089844 
	C174.002670,657.493408 132.914505,688.957825 91.453156,720.478271 
	C85.414162,707.695312 78.793900,695.153748 74.260765,681.898376 
	C66.942924,660.500244 60.498917,638.765564 54.671467,616.910217 
	C51.419640,604.714417 49.631504,592.051025 48.130917,579.485229 
	C46.244843,563.691467 44.748302,547.803894 44.147552,531.916565 
	C43.479408,514.246887 43.374367,496.501678 44.217514,478.846344 
	C44.887180,464.823761 46.954510,450.823883 49.145302,436.931274 
	C51.038338,424.926758 53.814384,413.050323 56.489796,401.182587 
	C62.516205,374.450348 71.725502,348.744873 82.203415,323.484375 
	C84.731529,317.389526 87.963799,311.586761 91.043030,305.322876 
	C120.858818,327.590363 150.504379,350.183929 180.148697,372.779114 
	C203.175369,390.330261 226.200546,407.883392 249.506317,425.555695 
	C247.466583,434.908508 244.803101,444.071808 242.920547,453.392822 
	C240.896393,463.415009 239.085648,473.536163 238.125122,483.703247 
	C236.916565,496.495636 235.766586,509.409912 236.215942,522.214600 
	C236.850647,540.301208 238.792572,558.361938 243.552856,575.957153 
	C245.655090,583.727478 247.797592,591.486938 249.879166,599.644348 
z"/>
</svg>