<svg version="1.1" id="Layer_1" xmlns="http://www.w3.org/2000/svg" xmlns:xlink="http://www.w3.org/1999/xlink" x="0px" y="0px"
	 width="100%" viewBox="0 0 80 80" enable-background="new 0 0 80 80" xml:space="preserve">
<path fill="#FEFDFD" opacity="1.000000" stroke="none" 
	d="
M52.000000,81.000000 
	C34.666668,81.000000 17.833334,81.000000 1.000000,81.000000 
	C1.000000,54.333332 1.000000,27.666666 1.000000,1.000000 
	C27.666666,1.000000 54.333332,1.000000 81.000000,1.000000 
	C81.000000,27.666666 81.000000,54.333332 81.000000,81.000000 
	C71.500000,81.000000 62.000000,81.000000 52.000000,81.000000 
M20.752680,47.187141 
	C20.762600,42.784016 20.772520,38.380894 21.114511,33.357761 
	C23.750145,27.273945 27.910419,22.686018 34.293499,20.521650 
	C41.785839,17.981153 48.633244,19.767796 54.189682,23.949430 
	C57.828728,20.423969 61.109283,17.245806 64.382935,14.074338 
	C47.967484,-1.852636 19.230059,3.744210 8.549227,25.566170 
	C3.823913,36.088200 3.529015,46.546940 9.113238,57.615681 
	C21.404203,78.637314 46.892677,83.486526 65.226021,67.826027 
	C74.507820,58.454258 76.894218,47.219624 74.789627,34.301971 
	C64.073051,34.301971 53.944176,34.294170 43.815372,34.317078 
	C43.021648,34.318871 42.228409,34.534893 41.285465,34.673290 
	C41.285465,39.275528 41.285465,43.661743 41.285465,48.667854 
	C47.606041,48.667854 53.645466,48.667854 59.684891,48.667854 
	C59.976105,49.100674 60.267319,49.533489 60.558537,49.966309 
	C58.252571,53.036880 55.946609,56.107456 53.022011,59.397926 
	C39.212566,66.237297 27.915329,62.243683 20.752680,47.187141 
z"/>
<path fill="#EA4739" opacity="1.000000" stroke="none" 
	d="
M9.042698,25.044340 
	C19.230059,3.744210 47.967484,-1.852636 64.382935,14.074338 
	C61.109283,17.245806 57.828728,20.423969 54.189682,23.949430 
	C48.633244,19.767796 41.785839,17.981153 34.293499,20.521650 
	C27.910419,22.686018 23.750145,27.273945 20.669094,33.505112 
	C16.496681,30.783087 12.769690,27.913713 9.042698,25.044340 
z"/>
<path fill="#4889F4" opacity="1.000000" stroke="none" 
	d="
M53.640644,59.178032 
	C55.946609,56.107456 58.252571,53.036880 60.558537,49.966309 
	C60.267319,49.533489 59.976105,49.100674 59.684891,48.667854 
	C53.645466,48.667854 47.606041,48.667854 41.285465,48.667854 
	C41.285465,43.661743 41.285465,39.275528 41.285465,34.673290 
	C42.228409,34.534893 43.021648,34.318871 43.815372,34.317078 
	C53.944176,34.294170 64.073051,34.301971 74.789627,34.301971 
	C76.894218,47.219624 74.507820,58.454258 64.666885,67.784393 
	C60.618713,64.887856 57.129681,62.032944 53.640644,59.178032 
z"/>
<path fill="#38A956" opacity="1.000000" stroke="none" 
	d="
M53.331329,59.287979 
	C57.129681,62.032944 60.618713,64.887856 64.349823,67.956665 
	C46.892677,83.486526 21.404203,78.637314 9.349062,57.118179 
	C13.320229,53.748489 17.055573,50.876305 20.790913,48.004120 
	C27.915329,62.243683 39.212566,66.237297 53.331329,59.287979 
z"/>
<path fill="#FABC0A" opacity="1.000000" stroke="none" 
	d="
M20.771797,47.595631 
	C17.055573,50.876305 13.320229,53.748489 9.291029,56.772015 
	C3.529015,46.546940 3.823913,36.088200 8.795962,25.305256 
	C12.769690,27.913713 16.496681,30.783087 20.503057,33.815113 
	C20.772520,38.380894 20.762600,42.784016 20.771797,47.595631 
z"/>
</svg>