<svg xmlns="http://www.w3.org/2000/svg" xmlns:xlink="http://www.w3.org/1999/xlink" version="1.1" id="Layer_1" x="0px" y="0px" style="enable-background:new 0 0 595.3 841.9;" xml:space="preserve" viewBox="217.8 303 233.11 174.6">
<style type="text/css">
	.st0{fill:#FFFFFF;stroke:#000000;stroke-width:7;stroke-miterlimit:10;}
	.st1{fill:#010101;stroke:#231F20;stroke-miterlimit:10;}
	.st2{fill:#FFFFFF;stroke:#231F20;stroke-width:3;stroke-miterlimit:10;}
	.st3{fill:#010101;}
</style>
<circle class="st0" cx="304.6" cy="390.8" r="83.3"/>
<path class="st1" d="M323.4,436.8c1.5,1.2,1.4,3-0.1,4.1c-7.6,5.7-15.8,8.6-24.5,8.6c-8.6,0-17.4-2.8-26.7-8.5  c-1.6-1-1.9-2.8-0.6-4.1c1.3-1.3,3.7-1.5,5.3-0.5c7.8,4.8,15.1,7.2,21.9,7.2c6.6,0,13-2.4,19.2-7  C319.6,435.6,321.9,435.7,323.4,436.8z"/>
<path d="M445.8,381.3c3.8,6.6,5.6,14.9,5,23.1c-0.4,6.4-1.8,12.5-4.2,17.8c-2.4,5.5-5.6,10-9.4,13.4c-5.3,4.7-11.8,6.1-18.1,4  c-0.6,8.4-3.6,15.9-8.2,20.9c-4.2,4.7-9.1,7.9-14.4,9.4c-5.3,1.7-10.8,1.9-16.3,0.5c-6.7-1.8-12.7-5.9-16.7-12.9  c-4.9,6-11.2,9.1-17.9,8.7c-5.3-0.1-10.6-1.8-15.5-4.8c-4.9-2.9-9.3-7.3-12.9-12.8c-3.7-5.7-5.9-13.2-6-20.7  c-8.2,0-16.1-6.3-20.5-16.5c-2.1-4.6-3.6-9.7-4.5-15c-0.8-5.3-0.9-10.8-0.3-16c1.5-12,7.1-22.5,17.8-26.4  c-0.7-6.1-0.3-12.2,1.3-17.7c2.3-7.8,6.1-14.4,10.9-19.2c5.1-5.2,11.2-8.3,17.6-8.9c6.9-0.6,13.9,1.9,20,7.3  c5-7.5,14.2-11.8,23.6-12.4c4-0.3,8.1,0.1,12.1,1.2c3.8,1,7.4,2.9,10.8,5.7c3.3,2.7,5.8,6.8,7.3,11.7c10.3-4.3,19.3-2.8,26.3,2.1  c9.1,6.4,15.4,19,16.6,33.1C450.9,365.7,449.4,374.4,445.8,381.3z"/>
<path class="st2" d="M442.8,380.7c3.5,5.9,5.2,13.3,4.6,20.6c-0.4,5.7-1.7,11.2-3.9,15.9c-2.2,4.9-5.2,9-8.8,11.9  c-5,4.2-11,5.5-16.9,3.7c-0.6,7.5-3.4,14.2-7.7,18.6c-3.9,4.2-8.5,7-13.5,8.5c-4.9,1.5-10.1,1.7-15.2,0.5  c-6.2-1.6-11.8-5.3-15.6-11.5c-4.6,5.4-10.5,8.1-16.7,7.8c-4.9-0.1-9.9-1.6-14.5-4.3c-4.5-2.5-8.7-6.5-12-11.4  c-3.5-5.1-5.5-11.7-5.6-18.5c-7.7,0-15-5.5-19.1-14.6c-2-4.1-3.4-8.6-4.1-13.4c-0.8-4.8-0.8-9.6-0.2-14.3  c1.5-10.7,6.7-20.1,16.7-23.6c-0.7-5.4-0.2-10.9,1.3-15.8c2.2-6.9,5.7-12.9,10.3-17.1c4.8-4.6,10.4-7.4,16.4-8  c6.4-0.6,13,1.7,18.6,6.4c4.6-6.7,13.3-10.5,22.1-11.1c3.8-0.3,7.6,0.1,11.3,1c3.5,0.9,6.9,2.6,10,5.1c3,2.4,5.4,6.1,6.8,10.4  c9.7-3.9,18-2.5,24.5,1.8c8.5,5.7,14.4,16.9,15.4,29.5C447.6,366.8,446.1,374.6,442.8,380.7z"/>
<circle class="st3" cx="260.5" cy="390.8" r="9.1"/>
</svg>